<svg width="450" height="64" viewBox="0 0 450 64" fill="none" xmlns="http://www.w3.org/2000/svg">
<path d="M0 10.9652C0 4.90929 4.99542 0 11.1576 0H97.071C103.233 0 108.229 4.90929 108.229 10.9652V52.633C108.229 58.6889 103.233 63.5982 97.071 63.5982H11.1576C4.99542 63.5982 0 58.6889 0 52.633V10.9652Z" fill="#A50000"/>
<path d="M49.9241 53.7295V42.8542H27.8555C27.1559 42.8542 27.0923 42.4792 27.0923 42.2292C27.0923 41.8542 27.4103 41.6667 27.7283 41.3542L46.6169 23.6662C48.5885 21.8537 50.3692 20.0411 50.3692 15.791C50.3692 10.8534 47.2529 9.97834 44.2002 9.97834H9.66637V20.8536H29.2546C29.9542 20.8536 30.3994 20.9161 30.3994 21.3537C30.3994 21.8537 30.0178 22.2287 29.6998 22.4787L12.0195 39.0416C10.2388 40.7292 7.69482 43.6043 7.69482 47.9794C7.69482 53.7296 13.1643 53.7295 15.7082 53.7295H49.9241Z" fill="white"/>
<path d="M53.7852 53.7295H68.1584V23.6037C68.1584 21.7287 69.0487 20.8536 70.9567 20.8536H79.1609C82.9768 20.8536 84.2487 21.8537 84.2487 25.6038C84.2487 29.3539 82.9768 30.5414 79.1609 30.5414H76.9985C73.1826 30.5414 70.5751 31.7289 70.5751 35.479V36.4166C70.5751 38.9166 72.1651 40.4167 73.6278 42.3542L82.2136 53.7295H99.5123L86.7926 40.6667V40.4167H88.7006C97.6044 40.4167 98.6219 31.1039 98.6219 24.8538C98.6219 15.4785 96.078 9.97834 85.9023 9.97834H60.781C56.3291 9.97834 53.7852 12.4784 53.7852 16.8535V53.7295Z" fill="white"/>
<path fill-rule="evenodd" clip-rule="evenodd" d="M96.513 17.5443C100.518 17.5443 103.765 14.3533 103.765 10.417C103.765 6.4806 100.518 3.28956 96.513 3.28956C92.5076 3.28956 89.2606 6.4806 89.2606 10.417C89.2606 14.3533 92.5076 17.5443 96.513 17.5443ZM96.513 19.7374C101.751 19.7374 105.997 15.5645 105.997 10.417C105.997 5.26942 101.751 1.09652 96.513 1.09652C91.2752 1.09652 87.0291 5.26942 87.0291 10.417C87.0291 15.5645 91.2752 19.7374 96.513 19.7374Z" fill="white"/>
<path d="M94.2204 8.34008L98.6386 12.6821L97.6161 13.6869L94.0184 10.1513L93.1348 11.0197L92.3143 10.2133L94.2204 8.34008Z" fill="white"/>
<path d="M101.874 7.86493L102.707 8.68371L99.3682 11.965L98.7055 11.3137L98.8002 8.05722C98.8086 7.70986 98.7833 7.4452 98.7244 7.26325C98.6613 7.07717 98.5687 6.92416 98.4467 6.80424C98.27 6.63056 98.0743 6.55819 97.8597 6.58714C97.6451 6.60782 97.4221 6.73187 97.1907 6.95931C96.9971 7.14953 96.8604 7.35836 96.7804 7.5858C96.6963 7.8091 96.6752 8.04481 96.7173 8.29293L95.4928 8.55345C95.4087 8.13165 95.4466 7.70159 95.6064 7.26325C95.7621 6.82078 96.0356 6.40726 96.427 6.02268C96.7552 5.70013 97.096 5.47269 97.4495 5.34037C97.8029 5.19977 98.1459 5.16048 98.4783 5.22251C98.8107 5.27627 99.1094 5.43341 99.3745 5.69393C99.6144 5.92964 99.789 6.2005 99.8984 6.5065C100.008 6.81251 100.052 7.24051 100.031 7.7905L99.9741 9.73199L101.874 7.86493Z" fill="white"/>
<path d="M151.943 22.0497V21.7997C156.967 20.8622 158.43 17.1746 158.43 12.7994C158.43 4.04919 154.996 0.549098 146.092 0.549098H119.317V11.4244H140.241C142.785 11.4244 144.184 11.8619 144.184 14.362C144.184 16.862 142.848 17.3621 140.304 17.3621H119.953V26.8623H140.749C143.293 26.8623 145.138 27.6123 145.138 30.1124C145.138 32.6125 143.293 33.425 140.749 33.425H119.062V44.3003H147.555C157.094 44.3003 159.638 40.1752 159.638 32.05C159.638 26.4248 158.239 23.1747 151.943 22.0497Z" fill="#434242"/>
<path d="M160.29 44.3003H175.553L186.301 15.362C186.492 15.112 186.683 14.2995 187.001 14.2995C187.319 14.2995 187.51 15.112 187.7 15.362L198.449 44.3003H213.712L196.604 4.54921C194.76 0.29909 189.736 0.0490866 187.001 0.0490866C184.266 0.0490866 179.242 0.29909 177.397 4.54921L160.29 44.3003Z" fill="#434242"/>
<path d="M214.323 44.3003H229.46L232.957 35.3001H248.984L252.482 44.3003H267.619L251.147 5.36173C249.111 0.486596 245.168 0.0490866 240.971 0.0490866C234.102 0.0490866 232.194 2.11164 230.795 5.36173L214.323 44.3003ZM240.271 13.612C240.462 13.1744 240.78 12.6744 240.971 12.6744C241.162 12.6744 241.48 13.1744 241.67 13.612L245.995 25.6748H235.947L240.271 13.612Z" fill="#434242"/>
<path d="M290.896 44.3003V11.4244H306.796V0.549098H260.623V11.4244H276.523V44.3003H290.896Z" fill="#434242"/>
<path d="M299.783 44.3003H314.92L318.418 35.3001H334.444L337.942 44.3003H353.079L336.607 5.36173C334.572 0.486596 330.628 0.0490866 326.431 0.0490866C319.562 0.0490866 317.654 2.11164 316.255 5.36173L299.783 44.3003ZM325.731 13.612C325.922 13.1744 326.24 12.6744 326.431 12.6744C326.622 12.6744 326.94 13.1744 327.131 13.612L331.455 25.6748H321.407L325.731 13.612Z" fill="#434242"/>
<path d="M369.35 44.3003V31.675H387.221C397.397 31.675 399.941 26.0498 399.941 16.0495C399.941 6.04925 397.397 0.549098 387.221 0.549098H361.973C357.521 0.549098 354.977 3.04917 354.977 7.42429V44.3003H369.35ZM369.35 20.7997V14.1745C369.35 12.2994 370.241 11.4244 372.149 11.4244H379.462C383.278 11.4244 385.186 12.2994 385.186 16.0495C385.186 19.7996 383.278 20.7997 379.462 20.7997H369.35Z" fill="#434242"/>
<path d="M405.036 0.549098V37.4251C405.036 41.8002 407.58 44.3003 412.032 44.3003H437.28C447.456 44.3003 450 39.4252 450 30.0499C450 20.6746 447.456 15.6745 437.28 15.6745H419.409V0.549098H405.036ZM429.521 26.5498C433.337 26.5498 435.245 26.9248 435.245 30.0499C435.245 33.175 433.337 33.425 429.521 33.425H422.207C420.3 33.425 419.409 32.55 419.409 30.6749V26.5498H429.521Z" fill="#434242"/>
<path d="M121.796 59.2122H124.76V52.5453H129.008V50.5452H117.547V52.5453H121.796V59.2122Z" fill="#A50000"/>
<path d="M134.108 50.5102C131.501 50.5102 130.234 52.0716 130.234 53.9839V55.791C130.234 57.7911 131.626 59.2122 134.108 59.2122H138.249C140.767 59.2122 142.105 57.8086 142.105 55.8261V53.9839C142.105 52.0541 140.82 50.5102 138.232 50.5102H134.108ZM139.142 54.212V55.598C139.142 56.7559 138.535 57.2121 137.232 57.2121H135.215C133.84 57.2121 133.197 56.7033 133.197 55.6156V54.1945C133.197 53.0716 133.84 52.5102 135.215 52.5102H137.232C138.535 52.5102 139.142 53.1944 139.142 54.212Z" fill="#A50000"/>
<path d="M146.899 50.5452H143.936V62.721H146.899V58.0191C147.221 58.5279 148.167 59.2122 149.47 59.2122H152.13C154.772 59.2122 155.986 57.7033 155.986 55.8085V53.9138C155.986 51.7032 154.611 50.5452 152.13 50.5452H149.452C148.095 50.5452 147.399 51.1242 146.899 51.5804V50.5452ZM153.023 55.5805C153.023 56.6858 152.362 57.2121 150.952 57.2121H148.827C147.524 57.2121 146.899 56.6331 146.899 55.5805V54.1769C146.899 53.1418 147.524 52.5453 148.827 52.5453H150.952C152.362 52.5453 153.023 53.1067 153.023 54.1769V55.5805Z" fill="#A50000"/>
<path d="M157.605 50.5452V59.2122H160.568V52.5453H166.477V50.5452H157.605Z" fill="#A50000"/>
<path d="M171.712 50.5102C169.106 50.5102 167.838 52.0716 167.838 53.9839V55.791C167.838 57.7911 169.231 59.2122 171.712 59.2122H175.854C178.371 59.2122 179.71 57.8086 179.71 55.8261V53.9839C179.71 52.0541 178.425 50.5102 175.836 50.5102H171.712ZM176.747 54.212V55.598C176.747 56.7559 176.14 57.2121 174.836 57.2121H172.819C171.444 57.2121 170.802 56.7033 170.802 55.6156V54.1945C170.802 53.0716 171.444 52.5102 172.819 52.5102H174.836C176.14 52.5102 176.747 53.1944 176.747 54.212Z" fill="#A50000"/>
<path d="M181.344 59.2122H188.967C191.252 59.2122 192.502 58.5806 192.502 56.8437C192.502 55.791 192.073 55.0892 191.109 54.8436C191.93 54.5454 192.27 53.8611 192.27 53.0365C192.27 51.3347 191.484 50.5452 188.788 50.5452H181.344V59.2122ZM184.308 55.5278H188.592C189.574 55.5278 189.86 55.9138 189.86 56.4752C189.86 57.1068 189.342 57.4051 188.663 57.4051H184.308V55.5278ZM184.308 52.3523H188.521C189.36 52.3523 189.61 52.6506 189.61 53.0365C189.61 53.4225 189.485 53.9138 188.592 53.9138H184.308V52.3523Z" fill="#A50000"/>
<path d="M194.305 50.5452V59.2122H203.106C204.909 59.2122 206.069 58.5104 206.069 57.0016V55.9489C206.069 54.5103 205.266 53.6506 202.499 53.6506H197.268V50.5452H194.305ZM197.268 55.4577H201.767C202.802 55.4577 203.177 55.6857 203.177 56.4401C203.177 57.1419 202.838 57.4051 201.767 57.4051H197.268V55.4577ZM211.925 50.5452H208.961V59.2122H211.925V50.5452Z" fill="#A50000"/>
<path d="M214.25 59.2122H218.553L222.909 52.5453H223.301V59.2122H225.961V50.5452H221.73L217.232 57.2121H216.91V50.5452H214.25V59.2122ZM218.428 47.0188H216.482C216.482 48.9663 217.41 49.668 219.856 49.668C222.302 49.668 223.23 48.9663 223.23 47.0188H221.284C221.284 48.1417 220.499 48.2469 219.856 48.2469C219.16 48.2469 218.428 48.1417 218.428 47.0188Z" fill="#A50000"/>
<path d="M234.639 57.2121H233.621V61.8263H236.335V59.2122H244.564V61.8263H247.278V57.2121H245.975V50.5452H235.835V53.9664C235.835 55.3349 235.478 56.37 234.639 57.2121ZM243.011 57.2121H237.781C238.423 56.37 238.691 55.3349 238.691 54.1945V52.5453H243.011V57.2121Z" fill="#A50000"/>
<path d="M252.378 50.5102C249.772 50.5102 248.504 52.0716 248.504 53.9839V55.791C248.504 57.7911 249.897 59.2122 252.378 59.2122H256.52C259.037 59.2122 260.376 57.8086 260.376 55.8261V53.9839C260.376 52.0541 259.091 50.5102 256.502 50.5102H252.378ZM257.412 54.212V55.598C257.412 56.7559 256.805 57.2121 255.502 57.2121H253.485C252.11 57.2121 251.468 56.7033 251.468 55.6156V54.1945C251.468 53.0716 252.11 52.5102 253.485 52.5102H255.502C256.805 52.5102 257.412 53.1944 257.412 54.212Z" fill="#A50000"/>
<path d="M262.545 50.5452V59.2122H265.205V52.5453H265.58L268.508 59.2122H271.561L274.489 52.5453H274.863V59.2122H277.523V50.5452H273.06L270.24 57.2121H269.829L267.009 50.5452H262.545Z" fill="#A50000"/>
</svg>
