<svg width="450" height="64" viewBox="0 0 450 64" fill="none" xmlns="http://www.w3.org/2000/svg">
<path d="M0 10.9652C0 4.90929 4.99542 0 11.1576 0H97.071C103.233 0 108.229 4.90929 108.229 10.9652V52.633C108.229 58.6889 103.233 63.5982 97.071 63.5982H11.1576C4.99542 63.5982 0 58.6889 0 52.633V10.9652Z" fill="#A50000"/>
<path d="M49.9241 53.7295V42.8542H27.8555C27.1559 42.8542 27.0923 42.4792 27.0923 42.2292C27.0923 41.8542 27.4103 41.6667 27.7283 41.3542L46.6169 23.6662C48.5885 21.8537 50.3692 20.0411 50.3692 15.791C50.3692 10.8534 47.2529 9.97834 44.2002 9.97834H9.66637V20.8536H29.2546C29.9542 20.8536 30.3994 20.9161 30.3994 21.3537C30.3994 21.8537 30.0178 22.2287 29.6998 22.4787L12.0195 39.0416C10.2388 40.7292 7.69482 43.6043 7.69482 47.9794C7.69482 53.7296 13.1643 53.7295 15.7082 53.7295H49.9241Z" fill="white"/>
<path d="M53.7852 53.7295H68.1584V23.6037C68.1584 21.7287 69.0487 20.8536 70.9567 20.8536H79.1609C82.9768 20.8536 84.2487 21.8537 84.2487 25.6038C84.2487 29.3539 82.9768 30.5414 79.1609 30.5414H76.9985C73.1826 30.5414 70.5751 31.7289 70.5751 35.479V36.4166C70.5751 38.9166 72.1651 40.4167 73.6278 42.3542L82.2136 53.7295H99.5123L86.7926 40.6667V40.4167H88.7006C97.6044 40.4167 98.6219 31.1039 98.6219 24.8538C98.6219 15.4785 96.078 9.97834 85.9023 9.97834H60.781C56.3291 9.97834 53.7852 12.4784 53.7852 16.8535V53.7295Z" fill="white"/>
<path fill-rule="evenodd" clip-rule="evenodd" d="M96.5131 17.5443C100.519 17.5443 103.766 14.3533 103.766 10.417C103.766 6.4806 100.519 3.28956 96.5131 3.28956C92.5077 3.28956 89.2607 6.4806 89.2607 10.417C89.2607 14.3533 92.5077 17.5443 96.5131 17.5443ZM96.5131 19.7374C101.751 19.7374 105.997 15.5645 105.997 10.417C105.997 5.26942 101.751 1.09652 96.5131 1.09652C91.2753 1.09652 87.0292 5.26942 87.0292 10.417C87.0292 15.5645 91.2753 19.7374 96.5131 19.7374Z" fill="white"/>
<path d="M94.2201 8.34008L98.6383 12.6821L97.6158 13.6869L94.0182 10.1513L93.1345 11.0197L92.314 10.2133L94.2201 8.34008Z" fill="white"/>
<path d="M101.874 7.86493L102.707 8.68371L99.368 11.965L98.7052 11.3137L98.7999 8.05722C98.8083 7.70986 98.7831 7.4452 98.7242 7.26325C98.6611 7.07717 98.5685 6.92416 98.4465 6.80424C98.2697 6.63056 98.0741 6.55819 97.8595 6.58714C97.6449 6.60782 97.4219 6.73187 97.1904 6.95931C96.9969 7.14953 96.8601 7.35836 96.7802 7.5858C96.696 7.8091 96.675 8.04481 96.7171 8.29293L95.4926 8.55345C95.4084 8.13165 95.4463 7.70159 95.6062 7.26325C95.7619 6.82078 96.0354 6.40726 96.4267 6.02268C96.7549 5.70013 97.0958 5.47269 97.4492 5.34037C97.8027 5.19977 98.1456 5.16048 98.478 5.22251C98.8104 5.27627 99.1092 5.43341 99.3743 5.69393C99.6141 5.92964 99.7887 6.2005 99.8982 6.5065C100.008 6.81251 100.052 7.24051 100.031 7.7905L99.9739 9.73199L101.874 7.86493Z" fill="white"/>
<path d="M151.943 22.0497V21.7997C156.967 20.8622 158.43 17.1746 158.43 12.7994C158.43 4.04919 154.996 0.549098 146.092 0.549098H119.317V11.4244H140.241C142.785 11.4244 144.184 11.8619 144.184 14.362C144.184 16.862 142.848 17.3621 140.304 17.3621H119.953V26.8623H140.749C143.293 26.8623 145.138 27.6123 145.138 30.1124C145.138 32.6125 143.293 33.425 140.749 33.425H119.062V44.3003H147.555C157.094 44.3003 159.638 40.1752 159.638 32.05C159.638 26.4248 158.239 23.1747 151.943 22.0497Z" fill="#434242"/>
<path d="M160.29 44.3003H175.553L186.301 15.362C186.492 15.112 186.683 14.2995 187.001 14.2995C187.319 14.2995 187.51 15.112 187.7 15.362L198.449 44.3003H213.712L196.604 4.54921C194.76 0.299091 189.736 0.0490875 187.001 0.0490875C184.266 0.0490875 179.242 0.299091 177.397 4.54921L160.29 44.3003Z" fill="#434242"/>
<path d="M214.323 44.3003H229.46L232.957 35.3001H248.984L252.482 44.3003H267.619L251.147 5.36173C249.111 0.486597 245.168 0.0490875 240.971 0.0490875C234.102 0.0490875 232.194 2.11164 230.795 5.36173L214.323 44.3003ZM240.271 13.612C240.462 13.1744 240.78 12.6744 240.971 12.6744C241.162 12.6744 241.48 13.1744 241.67 13.612L245.995 25.6748H235.947L240.271 13.612Z" fill="#434242"/>
<path d="M290.896 44.3003V11.4244H306.796V0.549098H260.623V11.4244H276.523V44.3003H290.896Z" fill="#434242"/>
<path d="M299.783 44.3003H314.92L318.418 35.3001H334.444L337.942 44.3003H353.079L336.607 5.36173C334.572 0.486597 330.628 0.0490875 326.431 0.0490875C319.562 0.0490875 317.654 2.11164 316.255 5.36173L299.783 44.3003ZM325.731 13.612C325.922 13.1744 326.24 12.6744 326.431 12.6744C326.622 12.6744 326.94 13.1744 327.131 13.612L331.455 25.6748H321.407L325.731 13.612Z" fill="#434242"/>
<path d="M369.35 44.3003V31.675H387.221C397.397 31.675 399.941 26.0498 399.941 16.0495C399.941 6.04925 397.397 0.549098 387.221 0.549098H361.973C357.521 0.549098 354.977 3.04917 354.977 7.42429V44.3003H369.35ZM369.35 20.7997V14.1745C369.35 12.2994 370.241 11.4244 372.149 11.4244H379.462C383.278 11.4244 385.186 12.2994 385.186 16.0495C385.186 19.7996 383.278 20.7997 379.462 20.7997H369.35Z" fill="#434242"/>
<path d="M405.036 0.549098V37.4251C405.036 41.8002 407.58 44.3003 412.032 44.3003H437.28C447.456 44.3003 450 39.4252 450 30.0499C450 20.6747 447.456 15.6745 437.28 15.6745H419.409V0.549098H405.036ZM429.521 26.5498C433.337 26.5498 435.245 26.9248 435.245 30.0499C435.245 33.175 433.337 33.425 429.521 33.425H422.207C420.3 33.425 419.409 32.55 419.409 30.6749V26.5498H429.521Z" fill="#434242"/>
<path d="M118.065 50.5452V59.2122H121.029V52.5453H126.938V59.2122H129.901V50.5452H118.065Z" fill="#A50000"/>
<path d="M134.8 50.5452H131.837V62.721H134.8V58.0191C135.122 58.5279 136.068 59.2122 137.371 59.2122H140.031C142.673 59.2122 143.887 57.7033 143.887 55.8085V53.9138C143.887 51.7032 142.512 50.5452 140.031 50.5452H137.353C135.996 50.5452 135.3 51.1242 134.8 51.5804V50.5452ZM140.924 55.5805C140.924 56.6858 140.263 57.2121 138.853 57.2121H136.728C135.425 57.2121 134.8 56.6331 134.8 55.5805V54.1769C134.8 53.1418 135.425 52.5453 136.728 52.5453H138.853C140.263 52.5453 140.924 53.1067 140.924 54.1769V55.5805Z" fill="#A50000"/>
<path d="M149.38 50.5102C146.773 50.5102 145.506 52.0716 145.506 53.9839V55.791C145.506 57.7911 146.898 59.2122 149.38 59.2122H153.521C156.039 59.2122 157.377 57.8086 157.377 55.8261V53.9839C157.377 52.0541 156.092 50.5102 153.504 50.5102H149.38ZM154.414 54.212V55.598C154.414 56.7559 153.807 57.2121 152.504 57.2121H150.486C149.112 57.2121 148.469 56.7033 148.469 55.6156V54.1945C148.469 53.0716 149.112 52.5102 150.486 52.5102H152.504C153.807 52.5102 154.414 53.1944 154.414 54.212Z" fill="#A50000"/>
<path d="M159.261 59.2122H163.564L167.92 52.5453H168.312V59.2122H170.972V50.5452H166.741L162.243 57.2121H161.921V50.5452H159.261V59.2122Z" fill="#A50000"/>
<path d="M176.037 59.2122H180.25C182.57 59.2122 183.802 58.5806 183.802 56.8437C183.802 55.791 183.374 55.0892 182.41 54.8436C183.231 54.5454 183.57 53.8611 183.57 53.0365C183.57 51.3347 182.767 50.5102 180.071 50.5102H176.501C173.823 50.5102 172.93 51.2295 172.93 53.2471H175.59C175.59 52.5628 176.09 52.3172 177.072 52.3172H179.821C180.66 52.3172 180.91 52.6506 180.91 53.0365C180.91 53.4225 180.785 53.9138 179.893 53.9138H177.143V55.5278H179.893C180.874 55.5278 181.16 55.9138 181.16 56.4752C181.16 57.1068 180.642 57.4051 179.964 57.4051H176.322C175.519 57.4051 175.34 57.0016 175.34 56.4577H172.68C172.68 58.3349 173.644 59.2122 176.037 59.2122Z" fill="#A50000"/>
<path d="M185.284 59.2122H192.907C195.192 59.2122 196.442 58.5806 196.442 56.8437C196.442 55.791 196.013 55.0892 195.049 54.8436C195.87 54.5454 196.21 53.8611 196.21 53.0365C196.21 51.3347 195.424 50.5452 192.728 50.5452H185.284V59.2122ZM188.248 55.5278H192.532C193.514 55.5278 193.8 55.9138 193.8 56.4752C193.8 57.1068 193.282 57.4051 192.603 57.4051H188.248V55.5278ZM188.248 52.3523H192.461C193.3 52.3523 193.55 52.6506 193.55 53.0365C193.55 53.4225 193.425 53.9138 192.532 53.9138H188.248V52.3523Z" fill="#A50000"/>
<path d="M202.03 50.5102C199.423 50.5102 198.156 52.0716 198.156 53.9839V55.791C198.156 57.7911 199.548 59.2122 202.03 59.2122H206.171C208.688 59.2122 210.027 57.8086 210.027 55.8261V53.9839C210.027 52.0541 208.742 50.5102 206.153 50.5102H202.03ZM207.064 54.212V55.598C207.064 56.7559 206.457 57.2121 205.154 57.2121H203.136C201.762 57.2121 201.119 56.7033 201.119 55.6156V54.1945C201.119 53.0716 201.762 52.5102 203.136 52.5102H205.154C206.457 52.5102 207.064 53.1944 207.064 54.212Z" fill="#A50000"/>
<path d="M212.393 57.2121H211.376V61.8263H214.089V59.2122H222.319V61.8263H225.033V57.2121H223.729V50.5452H213.589V53.9664C213.589 55.3349 213.232 56.37 212.393 57.2121ZM220.766 57.2121H215.535C216.178 56.37 216.446 55.3349 216.446 54.1945V52.5453H220.766V57.2121Z" fill="#A50000"/>
<path d="M237.631 53.5629C237.631 51.3347 236.47 50.5102 233.632 50.5102H229.615C227.223 50.5102 225.973 51.8786 225.973 53.9138V56.0015C225.973 57.7209 227.205 59.2122 229.526 59.2122H233.739C236.917 59.2122 237.631 58.1419 237.631 56.0717H234.667C234.667 56.9138 234.471 57.2121 233.364 57.2121H230.508C229.615 57.2121 228.937 56.6507 228.937 55.7033V54.212C228.937 53.1243 229.561 52.5102 230.597 52.5102H233.4C234.417 52.5102 234.667 52.8436 234.667 53.5629H237.631Z" fill="#A50000"/>
<path d="M242.908 59.2122H245.872V52.5453H250.121V50.5452H238.659V52.5453H242.908V59.2122Z" fill="#A50000"/>
<path d="M251.114 59.2122H258.737C261.022 59.2122 262.271 58.5806 262.271 56.8437C262.271 55.791 261.843 55.0892 260.879 54.8436C261.7 54.5454 262.039 53.8611 262.039 53.0365C262.039 51.3347 261.254 50.5452 258.558 50.5452H251.114V59.2122ZM254.077 55.5278H258.362C259.344 55.5278 259.629 55.9138 259.629 56.4752C259.629 57.1068 259.112 57.4051 258.433 57.4051H254.077V55.5278ZM254.077 52.3523H258.29C259.129 52.3523 259.379 52.6506 259.379 53.0365C259.379 53.4225 259.254 53.9138 258.362 53.9138H254.077V52.3523Z" fill="#A50000"/>
<path d="M272.18 53.8962H266.288C266.288 53.0541 266.627 52.3172 267.788 52.3172H270.519C271.787 52.3172 272.18 53.0541 272.18 53.8962ZM275.018 55.5103V54.0366C275.018 52.2997 274.143 50.5102 271.233 50.5102H267.02C264.378 50.5102 263.325 52.1769 263.325 53.7032V55.8963C263.325 57.7911 264.485 59.2122 266.967 59.2122H271.305C274.286 59.2122 275.018 57.8963 275.018 56.37H272.18C272.18 57.0542 271.84 57.4051 271.126 57.4051H267.699C266.485 57.4051 266.288 56.598 266.288 55.8436V55.5103H275.018Z" fill="#A50000"/>
<path d="M279.414 50.5452H276.45V59.2122H279.414V55.4752H285.323V59.2122H288.286V50.5452H285.323V53.4752H279.414V50.5452Z" fill="#A50000"/>
<path d="M293.221 50.5452H290.258V59.2122H293.221V55.4752H299.131V59.2122H302.094V50.5452H299.131V53.4752H293.221V50.5452Z" fill="#A50000"/>
<path d="M307.047 53.0541V52.7734C307.047 52.44 307.243 52.3523 308.189 52.3523H311.331C312.456 52.3523 312.956 52.5278 312.956 53.405V54.4927C312.635 53.9313 312.188 53.6506 311.313 53.6506H307.725C304.958 53.6506 304.155 54.5103 304.155 55.9489V57.0016C304.155 58.5104 305.315 59.2122 307.118 59.2122H311.081C312.153 59.2122 312.456 58.8788 312.956 58.2297V59.2122H315.919V53.598C315.919 51.9137 314.955 50.5452 312.17 50.5452H307.797C305.012 50.5452 304.226 51.633 304.226 53.0541H307.047ZM308.457 55.4577H311.51C312.599 55.4577 312.956 55.7384 312.956 56.4401C312.956 57.1595 312.599 57.4051 311.51 57.4051H308.457C307.386 57.4051 307.047 57.1419 307.047 56.4401C307.047 55.6857 307.422 55.4577 308.457 55.4577Z" fill="#A50000"/>
<path d="M326.746 56.1068V59.2122H329.709V50.5452H320.908C319.105 50.5452 317.927 51.2295 317.927 52.7383V53.8085C317.927 55.1945 319.052 56.1068 320.819 56.1068L317.695 59.2122H321.337L324.229 56.1068H326.746ZM326.746 54.2997H322.247C321.212 54.2997 320.819 54.0541 320.819 53.2997C320.819 52.5979 321.176 52.3523 322.247 52.3523H326.746V54.2997Z" fill="#A50000"/>
<path d="M340.709 50.5452H337.746V59.2122H340.709V55.4577H341.798L344.958 59.2122H348.493L343.994 54.5629L348.118 50.5452H344.78L341.798 53.6506H340.709V50.5452Z" fill="#A50000"/>
<path d="M353.25 50.5102C350.643 50.5102 349.376 52.0716 349.376 53.9839V55.791C349.376 57.7911 350.768 59.2122 353.25 59.2122H357.391C359.909 59.2122 361.247 57.8086 361.247 55.8261V53.9839C361.247 52.0541 359.962 50.5102 357.374 50.5102H353.25ZM358.284 54.212V55.598C358.284 56.7559 357.677 57.2121 356.374 57.2121H354.357C352.982 57.2121 352.339 56.7033 352.339 55.6156V54.1945C352.339 53.0716 352.982 52.5102 354.357 52.5102H356.374C357.677 52.5102 358.284 53.1944 358.284 54.212Z" fill="#A50000"/>
<path d="M363.417 50.5452V59.2122H366.077V52.5453H366.452L369.38 59.2122H372.432L375.36 52.5453H375.735V59.2122H378.395V50.5452H373.932L371.111 57.2121H370.701L367.88 50.5452H363.417Z" fill="#A50000"/>
<path d="M380.355 50.5452V59.2122H383.319V52.5453H389.228V59.2122H392.191V50.5452H380.355Z" fill="#A50000"/>
<path d="M397.144 53.0541V52.7734C397.144 52.44 397.341 52.3523 398.287 52.3523H401.429C402.554 52.3523 403.053 52.5278 403.053 53.405V54.4927C402.732 53.9313 402.286 53.6506 401.411 53.6506H397.823C395.056 53.6506 394.252 54.5103 394.252 55.9489V57.0016C394.252 58.5104 395.413 59.2122 397.216 59.2122H401.179C402.25 59.2122 402.553 58.8788 403.053 58.2297V59.2122H406.017V53.598C406.017 51.9137 405.053 50.5452 402.268 50.5452H397.894C395.109 50.5452 394.324 51.633 394.324 53.0541H397.144ZM398.555 55.4577H401.607C402.696 55.4577 403.053 55.7384 403.053 56.4401C403.053 57.1595 402.696 57.4051 401.607 57.4051H398.555C397.483 57.4051 397.144 57.1419 397.144 56.4401C397.144 55.6857 397.519 55.4577 398.555 55.4577Z" fill="#A50000"/>
<path d="M410.917 50.5452H407.953V59.2122H410.917V55.4752H416.826V59.2122H419.789V50.5452H416.826V53.4752H410.917V50.5452Z" fill="#A50000"/>
<path d="M421.778 59.2122H426.081L430.437 52.5453H430.829V59.2122H433.489V50.5452H429.258L424.76 57.2121H424.438V50.5452H421.778V59.2122Z" fill="#A50000"/>
<path d="M444.284 56.1068V59.2122H447.248V50.5452H438.446C436.643 50.5452 435.465 51.2295 435.465 52.7383V53.8085C435.465 55.1945 436.59 56.1068 438.357 56.1068L435.233 59.2122H438.875L441.767 56.1068H444.284ZM444.284 54.2997H439.785C438.75 54.2997 438.357 54.0541 438.357 53.2997C438.357 52.5979 438.714 52.3523 439.785 52.3523H444.284V54.2997Z" fill="#A50000"/>
</svg>
