<svg width="450" height="64" viewBox="0 0 450 64" fill="none" xmlns="http://www.w3.org/2000/svg">
<path d="M0 10.9652C0 4.90929 4.99542 0 11.1576 0H97.071C103.233 0 108.229 4.90929 108.229 10.9652V52.633C108.229 58.6889 103.233 63.5982 97.071 63.5982H11.1576C4.99542 63.5982 0 58.6889 0 52.633V10.9652Z" fill="#A50000"/>
<path d="M49.9241 53.7295V42.8542H27.8555C27.1559 42.8542 27.0923 42.4792 27.0923 42.2292C27.0923 41.8542 27.4103 41.6667 27.7283 41.3542L46.6169 23.6662C48.5885 21.8537 50.3692 20.0411 50.3692 15.791C50.3692 10.8534 47.2529 9.97834 44.2002 9.97834H9.66637V20.8536H29.2546C29.9542 20.8536 30.3994 20.9161 30.3994 21.3537C30.3994 21.8537 30.0178 22.2287 29.6998 22.4787L12.0195 39.0416C10.2388 40.7292 7.69482 43.6043 7.69482 47.9794C7.69482 53.7296 13.1643 53.7295 15.7082 53.7295H49.9241Z" fill="white"/>
<path d="M53.7852 53.7295H68.1584V23.6037C68.1584 21.7287 69.0487 20.8536 70.9567 20.8536H79.1609C82.9768 20.8536 84.2487 21.8537 84.2487 25.6038C84.2487 29.3539 82.9768 30.5414 79.1609 30.5414H76.9985C73.1826 30.5414 70.5751 31.7289 70.5751 35.479V36.4166C70.5751 38.9166 72.1651 40.4167 73.6278 42.3542L82.2136 53.7295H99.5123L86.7926 40.6667V40.4167H88.7006C97.6044 40.4167 98.6219 31.1039 98.6219 24.8538C98.6219 15.4785 96.078 9.97834 85.9023 9.97834H60.781C56.3291 9.97834 53.7852 12.4784 53.7852 16.8535V53.7295Z" fill="white"/>
<path fill-rule="evenodd" clip-rule="evenodd" d="M96.513 17.5443C100.518 17.5443 103.765 14.3533 103.765 10.417C103.765 6.4806 100.518 3.28956 96.513 3.28956C92.5076 3.28956 89.2606 6.4806 89.2606 10.417C89.2606 14.3533 92.5076 17.5443 96.513 17.5443ZM96.513 19.7374C101.751 19.7374 105.997 15.5645 105.997 10.417C105.997 5.26942 101.751 1.09652 96.513 1.09652C91.2752 1.09652 87.0291 5.26942 87.0291 10.417C87.0291 15.5645 91.2752 19.7374 96.513 19.7374Z" fill="white"/>
<path d="M94.2204 8.34008L98.6386 12.6821L97.6161 13.6869L94.0184 10.1513L93.1348 11.0197L92.3143 10.2133L94.2204 8.34008Z" fill="white"/>
<path d="M101.874 7.86493L102.707 8.68371L99.3682 11.965L98.7055 11.3137L98.8002 8.05722C98.8086 7.70986 98.7833 7.4452 98.7244 7.26325C98.6613 7.07717 98.5687 6.92416 98.4467 6.80424C98.27 6.63056 98.0743 6.55819 97.8597 6.58714C97.6451 6.60782 97.4221 6.73187 97.1907 6.95931C96.9971 7.14953 96.8604 7.35836 96.7804 7.5858C96.6963 7.8091 96.6752 8.04481 96.7173 8.29293L95.4928 8.55345C95.4087 8.13165 95.4466 7.70159 95.6064 7.26325C95.7621 6.82078 96.0356 6.40726 96.427 6.02268C96.7552 5.70013 97.096 5.47269 97.4495 5.34037C97.8029 5.19977 98.1459 5.16048 98.4783 5.22251C98.8107 5.27627 99.1094 5.43341 99.3745 5.69393C99.6144 5.92964 99.789 6.2005 99.8984 6.5065C100.008 6.81251 100.052 7.24051 100.031 7.7905L99.9741 9.73199L101.874 7.86493Z" fill="white"/>
<path d="M151.943 22.0497V21.7997C156.967 20.8622 158.43 17.1746 158.43 12.7994C158.43 4.04919 154.996 0.549098 146.092 0.549098H119.317V11.4244H140.241C142.785 11.4244 144.184 11.8619 144.184 14.362C144.184 16.862 142.848 17.3621 140.304 17.3621H119.953V26.8623H140.749C143.293 26.8623 145.138 27.6123 145.138 30.1124C145.138 32.6125 143.293 33.425 140.749 33.425H119.062V44.3003H147.555C157.094 44.3003 159.638 40.1752 159.638 32.05C159.638 26.4248 158.239 23.1747 151.943 22.0497Z" fill="#434242"/>
<path d="M160.29 44.3003H175.553L186.301 15.362C186.492 15.112 186.683 14.2995 187.001 14.2995C187.319 14.2995 187.51 15.112 187.7 15.362L198.449 44.3003H213.712L196.604 4.54921C194.76 0.29909 189.736 0.0490866 187.001 0.0490866C184.266 0.0490866 179.242 0.29909 177.397 4.54921L160.29 44.3003Z" fill="#434242"/>
<path d="M214.323 44.3003H229.46L232.957 35.3001H248.984L252.482 44.3003H267.619L251.147 5.36173C249.111 0.486596 245.168 0.0490866 240.971 0.0490866C234.102 0.0490866 232.194 2.11164 230.795 5.36173L214.323 44.3003ZM240.271 13.612C240.462 13.1744 240.78 12.6744 240.971 12.6744C241.162 12.6744 241.48 13.1744 241.67 13.612L245.995 25.6748H235.947L240.271 13.612Z" fill="#434242"/>
<path d="M290.896 44.3003V11.4244H306.796V0.549098H260.623V11.4244H276.523V44.3003H290.896Z" fill="#434242"/>
<path d="M299.783 44.3003H314.92L318.418 35.3001H334.444L337.942 44.3003H353.079L336.607 5.36173C334.572 0.486596 330.628 0.0490866 326.431 0.0490866C319.562 0.0490866 317.654 2.11164 316.255 5.36173L299.783 44.3003ZM325.731 13.612C325.922 13.1744 326.24 12.6744 326.431 12.6744C326.622 12.6744 326.94 13.1744 327.131 13.612L331.455 25.6748H321.407L325.731 13.612Z" fill="#434242"/>
<path d="M369.35 44.3003V31.675H387.221C397.397 31.675 399.941 26.0498 399.941 16.0495C399.941 6.04925 397.397 0.549098 387.221 0.549098H361.973C357.521 0.549098 354.977 3.04917 354.977 7.42429V44.3003H369.35ZM369.35 20.7997V14.1745C369.35 12.2994 370.241 11.4244 372.149 11.4244H379.462C383.278 11.4244 385.186 12.2994 385.186 16.0495C385.186 19.7996 383.278 20.7997 379.462 20.7997H369.35Z" fill="#434242"/>
<path d="M405.036 0.549098V37.4251C405.036 41.8002 407.58 44.3003 412.032 44.3003H437.28C447.456 44.3003 450 39.4252 450 30.0499C450 20.6746 447.456 15.6745 437.28 15.6745H419.409V0.549098H405.036ZM429.521 26.5498C433.337 26.5498 435.245 26.9248 435.245 30.0499C435.245 33.175 433.337 33.425 429.521 33.425H422.207C420.3 33.425 419.409 32.55 419.409 30.6749V26.5498H429.521Z" fill="#434242"/>
<path d="M118.368 50.5452V59.2122H121.028V52.5453H121.403L124.331 59.2122H127.384L130.311 52.5453H130.686V59.2122H133.346V50.5452H128.883L126.063 57.2121H125.652L122.831 50.5452H118.368Z" fill="#A50000"/>
<path d="M139.181 50.5102C136.574 50.5102 135.307 52.0716 135.307 53.9839V55.791C135.307 57.7911 136.699 59.2122 139.181 59.2122H143.322C145.84 59.2122 147.179 57.8086 147.179 55.8261V53.9839C147.179 52.0541 145.893 50.5102 143.305 50.5102H139.181ZM144.215 54.212V55.598C144.215 56.7559 143.608 57.2121 142.305 57.2121H140.288C138.913 57.2121 138.27 56.7033 138.27 55.6156V54.1945C138.27 53.0716 138.913 52.5102 140.288 52.5102H142.305C143.608 52.5102 144.215 53.1944 144.215 54.212Z" fill="#A50000"/>
<path d="M152.008 50.5452H149.045V59.2122H152.008V55.4752H157.917V59.2122H160.881V50.5452H157.917V53.4752H152.008V50.5452Z" fill="#A50000"/>
<path d="M166.583 59.2122H169.547V52.5453H173.796V50.5452H162.334V52.5453H166.583V59.2122Z" fill="#A50000"/>
<path d="M178.002 53.0541V52.7734C178.002 52.44 178.199 52.3523 179.145 52.3523H182.287C183.411 52.3523 183.911 52.5278 183.911 53.405V54.4927C183.59 53.9313 183.144 53.6506 182.269 53.6506H178.681C175.914 53.6506 175.11 54.5103 175.11 55.9489V57.0016C175.11 58.5104 176.271 59.2122 178.074 59.2122H182.037C183.108 59.2122 183.411 58.8788 183.911 58.2297V59.2122H186.875V53.598C186.875 51.9137 185.911 50.5452 183.126 50.5452H178.752C175.967 50.5452 175.182 51.633 175.182 53.0541H178.002ZM179.413 55.4577H182.465C183.554 55.4577 183.911 55.7384 183.911 56.4401C183.911 57.1595 183.554 57.4051 182.465 57.4051H179.413C178.341 57.4051 178.002 57.1419 178.002 56.4401C178.002 55.6857 178.377 55.4577 179.413 55.4577Z" fill="#A50000"/>
<path d="M195.523 59.2122H198.183V55.4577H199.272L202.022 59.2122H205.556L201.29 54.5454L205.181 50.5452H201.843L199.272 53.6506H198.183V50.5452H195.523V53.6506H194.434L191.864 50.5452H188.525L192.417 54.5454L188.15 59.2122H191.685L194.434 55.4577H195.523V59.2122Z" fill="#A50000"/>
</svg>
